{
	"asset":{
		"generator":"Khronos glTF Blender I/O v4.2.83",
		"version":"2.0"
	},
	"extensionsUsed":[
		"KHR_materials_unlit"
	],
	"scene":0,
	"scenes":[
		{
			"name":"Scene",
			"nodes":[
				0
			]
		}
	],
	"nodes":[
		{
			"mesh":0,
			"name":"Cube.001",
			"rotation":[
				0,
				-0.21872377395629883,
				0,
				0.9757869243621826
			],
			"scale":[
				1.1629153490066528,
				1.1629153490066528,
				1.1629153490066528
			],
			"translation":[
				0,
				4.827644348144531,
				0
			]
		}
	],
	"materials":[
		{
			"doubleSided":true,
			"extensions":{
				"KHR_materials_unlit":{}
			},
			"name":"Cork",
			"pbrMetallicRoughness":{
				"baseColorTexture":{
					"index":0
				},
				"metallicFactor":0,
				"roughnessFactor":0.9
			}
		},
		{
			"doubleSided":true,
			"extensions":{
				"KHR_materials_unlit":{}
			},
			"name":"Green",
			"pbrMetallicRoughness":{
				"baseColorTexture":{
					"index":1
				},
				"metallicFactor":0,
				"roughnessFactor":0.9
			}
		}
	],
	"meshes":[
		{
			"name":"Cube.006",
			"primitives":[
				{
					"attributes":{
						"POSITION":0,
						"NORMAL":1,
						"TEXCOORD_0":2
					},
					"indices":3,
					"material":0
				},
				{
					"attributes":{
						"POSITION":4,
						"NORMAL":5,
						"TEXCOORD_0":6
					},
					"indices":7,
					"material":1
				}
			]
		}
	],
	"textures":[
		{
			"sampler":0,
			"source":0
		},
		{
			"sampler":0,
			"source":0
		}
	],
	"images":[
		{
			"mimeType":"image/png",
			"name":"Butelka4",
			"uri":"Textures/Butelka4.png"
		}
	],
	"accessors":[
		{
			"bufferView":0,
			"componentType":5126,
			"count":207,
			"max":[
				0.23875898122787476,
				0.19986486434936523,
				0.23875895142555237
			],
			"min":[
				-0.23875895142555237,
				-0.2938566207885742,
				-0.2958223223686218
			],
			"type":"VEC3"
		},
		{
			"bufferView":1,
			"componentType":5126,
			"count":207,
			"type":"VEC3"
		},
		{
			"bufferView":2,
			"componentType":5126,
			"count":207,
			"type":"VEC2"
		},
		{
			"bufferView":3,
			"componentType":5123,
			"count":600,
			"type":"SCALAR"
		},
		{
			"bufferView":4,
			"componentType":5126,
			"count":339,
			"max":[
				0.5771984457969666,
				-0.032300472259521484,
				0.5394670367240906
			],
			"min":[
				-0.525933563709259,
				-4.31367826461792,
				-0.563664972782135
			],
			"type":"VEC3"
		},
		{
			"bufferView":5,
			"componentType":5126,
			"count":339,
			"type":"VEC3"
		},
		{
			"bufferView":6,
			"componentType":5126,
			"count":339,
			"type":"VEC2"
		},
		{
			"bufferView":7,
			"componentType":5123,
			"count":1548,
			"type":"SCALAR"
		}
	],
	"bufferViews":[
		{
			"buffer":0,
			"byteLength":2484,
			"byteOffset":0,
			"target":34962
		},
		{
			"buffer":0,
			"byteLength":2484,
			"byteOffset":2484,
			"target":34962
		},
		{
			"buffer":0,
			"byteLength":1656,
			"byteOffset":4968,
			"target":34962
		},
		{
			"buffer":0,
			"byteLength":1200,
			"byteOffset":6624,
			"target":34963
		},
		{
			"buffer":0,
			"byteLength":4068,
			"byteOffset":7824,
			"target":34962
		},
		{
			"buffer":0,
			"byteLength":4068,
			"byteOffset":11892,
			"target":34962
		},
		{
			"buffer":0,
			"byteLength":2712,
			"byteOffset":15960,
			"target":34962
		},
		{
			"buffer":0,
			"byteLength":3096,
			"byteOffset":18672,
			"target":34963
		}
	],
	"samplers":[
		{
			"magFilter":9729,
			"minFilter":9987
		}
	],
	"buffers":[
		{
			"byteLength":21768,
			"uri":"Butelka4.bin"
		}
	]
}
