{
	"asset":{
		"generator":"Khronos glTF Blender I/O v4.2.83",
		"version":"2.0"
	},
	"extensionsUsed":[
		"KHR_materials_unlit"
	],
	"scene":0,
	"scenes":[
		{
			"name":"Scene",
			"nodes":[
				0
			]
		}
	],
	"nodes":[
		{
			"mesh":0,
			"name":"Cube.012",
			"scale":[
				0.3964777886867523,
				0.06966478377580643,
				0.22481267154216766
			]
		}
	],
	"materials":[
		{
			"doubleSided":true,
			"extensions":{
				"KHR_materials_unlit":{}
			},
			"name":"Material.032",
			"pbrMetallicRoughness":{
				"baseColorTexture":{
					"index":0
				},
				"metallicFactor":0,
				"roughnessFactor":0.9
			}
		},
		{
			"doubleSided":true,
			"extensions":{
				"KHR_materials_unlit":{}
			},
			"name":"Material.041",
			"pbrMetallicRoughness":{
				"baseColorTexture":{
					"index":1
				},
				"metallicFactor":0,
				"roughnessFactor":0.9
			}
		},
		{
			"doubleSided":true,
			"extensions":{
				"KHR_materials_unlit":{}
			},
			"name":"Material.042",
			"pbrMetallicRoughness":{
				"baseColorTexture":{
					"index":2
				},
				"metallicFactor":0,
				"roughnessFactor":0.9
			}
		}
	],
	"meshes":[
		{
			"name":"Cube.010",
			"primitives":[
				{
					"attributes":{
						"POSITION":0,
						"NORMAL":1,
						"TEXCOORD_0":2
					},
					"indices":3,
					"material":0
				},
				{
					"attributes":{
						"POSITION":4,
						"NORMAL":5,
						"TEXCOORD_0":6
					},
					"indices":7,
					"material":1
				},
				{
					"attributes":{
						"POSITION":8,
						"NORMAL":9,
						"TEXCOORD_0":10
					},
					"indices":11,
					"material":2
				}
			]
		}
	],
	"textures":[
		{
			"sampler":0,
			"source":0
		},
		{
			"sampler":0,
			"source":0
		},
		{
			"sampler":0,
			"source":0
		}
	],
	"images":[
		{
			"mimeType":"image/png",
			"name":"PtasieMleczko",
			"uri":"Textures/PtasieMleczko.png"
		}
	],
	"accessors":[
		{
			"bufferView":0,
			"componentType":5126,
			"count":61,
			"max":[
				1.0264066457748413,
				0.9659613966941833,
				1.014113187789917
			],
			"min":[
				-1.0198566913604736,
				-1.0792210102081299,
				-1.01034414768219
			],
			"type":"VEC3"
		},
		{
			"bufferView":1,
			"componentType":5126,
			"count":61,
			"type":"VEC3"
		},
		{
			"bufferView":2,
			"componentType":5126,
			"count":61,
			"type":"VEC2"
		},
		{
			"bufferView":3,
			"componentType":5123,
			"count":144,
			"type":"SCALAR"
		},
		{
			"bufferView":4,
			"componentType":5126,
			"count":47,
			"max":[
				1.0264066457748413,
				1.0589524507522583,
				-0.0009323358535766602
			],
			"min":[
				-1.0128686428070068,
				0.9015746116638184,
				-1.0049673318862915
			],
			"type":"VEC3"
		},
		{
			"bufferView":5,
			"componentType":5126,
			"count":47,
			"type":"VEC3"
		},
		{
			"bufferView":6,
			"componentType":5126,
			"count":47,
			"type":"VEC2"
		},
		{
			"bufferView":7,
			"componentType":5123,
			"count":138,
			"type":"SCALAR"
		},
		{
			"bufferView":8,
			"componentType":5126,
			"count":47,
			"max":[
				1.0189590454101562,
				1.0266200304031372,
				1.003440499305725
			],
			"min":[
				-1.0087321996688843,
				0.8898966312408447,
				-0.0011895298957824707
			],
			"type":"VEC3"
		},
		{
			"bufferView":9,
			"componentType":5126,
			"count":47,
			"type":"VEC3"
		},
		{
			"bufferView":10,
			"componentType":5126,
			"count":47,
			"type":"VEC2"
		},
		{
			"bufferView":11,
			"componentType":5123,
			"count":138,
			"type":"SCALAR"
		}
	],
	"bufferViews":[
		{
			"buffer":0,
			"byteLength":732,
			"byteOffset":0,
			"target":34962
		},
		{
			"buffer":0,
			"byteLength":732,
			"byteOffset":732,
			"target":34962
		},
		{
			"buffer":0,
			"byteLength":488,
			"byteOffset":1464,
			"target":34962
		},
		{
			"buffer":0,
			"byteLength":288,
			"byteOffset":1952,
			"target":34963
		},
		{
			"buffer":0,
			"byteLength":564,
			"byteOffset":2240,
			"target":34962
		},
		{
			"buffer":0,
			"byteLength":564,
			"byteOffset":2804,
			"target":34962
		},
		{
			"buffer":0,
			"byteLength":376,
			"byteOffset":3368,
			"target":34962
		},
		{
			"buffer":0,
			"byteLength":276,
			"byteOffset":3744,
			"target":34963
		},
		{
			"buffer":0,
			"byteLength":564,
			"byteOffset":4020,
			"target":34962
		},
		{
			"buffer":0,
			"byteLength":564,
			"byteOffset":4584,
			"target":34962
		},
		{
			"buffer":0,
			"byteLength":376,
			"byteOffset":5148,
			"target":34962
		},
		{
			"buffer":0,
			"byteLength":276,
			"byteOffset":5524,
			"target":34963
		}
	],
	"samplers":[
		{
			"magFilter":9729,
			"minFilter":9987
		}
	],
	"buffers":[
		{
			"byteLength":5800,
			"uri":"PtasieMleczko.bin"
		}
	]
}
