{
	"asset":{
		"generator":"Khronos glTF Blender I/O v4.2.83",
		"version":"2.0"
	},
	"extensionsUsed":[
		"KHR_materials_unlit"
	],
	"scene":0,
	"scenes":[
		{
			"name":"Scene",
			"nodes":[
				0
			]
		}
	],
	"nodes":[
		{
			"mesh":0,
			"name":"Wodka",
			"rotation":[
				-0.7071068286895752,
				0,
				0,
				0.7071068286895752
			],
			"translation":[
				-0.23403184115886688,
				0.11967134475708008,
				0
			]
		}
	],
	"materials":[
		{
			"doubleSided":true,
			"extensions":{
				"KHR_materials_unlit":{}
			},
			"name":"Material.043",
			"pbrMetallicRoughness":{
				"baseColorTexture":{
					"index":0
				},
				"metallicFactor":0,
				"roughnessFactor":0.9
			}
		},
		{
			"doubleSided":true,
			"extensions":{
				"KHR_materials_unlit":{}
			},
			"name":"Material.044",
			"pbrMetallicRoughness":{
				"baseColorTexture":{
					"index":1
				},
				"metallicFactor":0,
				"roughnessFactor":0.9
			}
		}
	],
	"meshes":[
		{
			"name":"Plane",
			"primitives":[
				{
					"attributes":{
						"POSITION":0,
						"NORMAL":1,
						"TEXCOORD_0":2
					},
					"indices":3
				},
				{
					"attributes":{
						"POSITION":4,
						"NORMAL":5,
						"TEXCOORD_0":6
					},
					"indices":7,
					"material":0
				},
				{
					"attributes":{
						"POSITION":8,
						"NORMAL":9,
						"TEXCOORD_0":10
					},
					"indices":11,
					"material":1
				}
			]
		}
	],
	"textures":[
		{
			"sampler":0,
			"source":0
		},
		{
			"sampler":0,
			"source":0
		}
	],
	"images":[
		{
			"mimeType":"image/png",
			"name":"Wodka",
			"uri":"Textures/Wodka.png"
		}
	],
	"accessors":[
		{
			"bufferView":0,
			"componentType":5126,
			"count":24,
			"max":[
				0.3313470482826233,
				0.09731511026620865,
				1.6178429126739502
			],
			"min":[
				0.13671663403511047,
				-0.09731529653072357,
				1.6178429126739502
			],
			"type":"VEC3"
		},
		{
			"bufferView":1,
			"componentType":5126,
			"count":24,
			"type":"VEC3"
		},
		{
			"bufferView":2,
			"componentType":5126,
			"count":24,
			"type":"VEC2"
		},
		{
			"bufferView":3,
			"componentType":5123,
			"count":72,
			"type":"SCALAR"
		},
		{
			"bufferView":4,
			"componentType":5126,
			"count":468,
			"max":[
				0.46806374192237854,
				0.23403191566467285,
				1.6266101598739624
			],
			"min":[
				0,
				-0.23403191566467285,
				-0.08659010380506516
			],
			"type":"VEC3"
		},
		{
			"bufferView":5,
			"componentType":5126,
			"count":468,
			"type":"VEC3"
		},
		{
			"bufferView":6,
			"componentType":5126,
			"count":468,
			"type":"VEC2"
		},
		{
			"bufferView":7,
			"componentType":5123,
			"count":1830,
			"type":"SCALAR"
		},
		{
			"bufferView":8,
			"componentType":5126,
			"count":336,
			"max":[
				0.3313470482826233,
				0.09731511026620865,
				1.7487423419952393
			],
			"min":[
				0.13671663403511047,
				-0.09731530398130417,
				1.6178429126739502
			],
			"type":"VEC3"
		},
		{
			"bufferView":9,
			"componentType":5126,
			"count":336,
			"type":"VEC3"
		},
		{
			"bufferView":10,
			"componentType":5126,
			"count":336,
			"type":"VEC2"
		},
		{
			"bufferView":11,
			"componentType":5123,
			"count":1038,
			"type":"SCALAR"
		}
	],
	"bufferViews":[
		{
			"buffer":0,
			"byteLength":288,
			"byteOffset":0,
			"target":34962
		},
		{
			"buffer":0,
			"byteLength":288,
			"byteOffset":288,
			"target":34962
		},
		{
			"buffer":0,
			"byteLength":192,
			"byteOffset":576,
			"target":34962
		},
		{
			"buffer":0,
			"byteLength":144,
			"byteOffset":768,
			"target":34963
		},
		{
			"buffer":0,
			"byteLength":5616,
			"byteOffset":912,
			"target":34962
		},
		{
			"buffer":0,
			"byteLength":5616,
			"byteOffset":6528,
			"target":34962
		},
		{
			"buffer":0,
			"byteLength":3744,
			"byteOffset":12144,
			"target":34962
		},
		{
			"buffer":0,
			"byteLength":3660,
			"byteOffset":15888,
			"target":34963
		},
		{
			"buffer":0,
			"byteLength":4032,
			"byteOffset":19548,
			"target":34962
		},
		{
			"buffer":0,
			"byteLength":4032,
			"byteOffset":23580,
			"target":34962
		},
		{
			"buffer":0,
			"byteLength":2688,
			"byteOffset":27612,
			"target":34962
		},
		{
			"buffer":0,
			"byteLength":2076,
			"byteOffset":30300,
			"target":34963
		}
	],
	"samplers":[
		{
			"magFilter":9729,
			"minFilter":9987
		}
	],
	"buffers":[
		{
			"byteLength":32376,
			"uri":"Wodka.bin"
		}
	]
}
