{
	"asset":{
		"generator":"Khronos glTF Blender I/O v4.2.83",
		"version":"2.0"
	},
	"extensionsUsed":[
		"KHR_materials_unlit"
	],
	"scene":0,
	"scenes":[
		{
			"name":"Scene",
			"nodes":[
				0
			]
		}
	],
	"nodes":[
		{
			"mesh":0,
			"name":"Circle.001",
			"rotation":[
				0.13492229580879211,
				0.13492229580879211,
				-0.6941152215003967,
				0.6941152811050415
			],
			"scale":[
				0.029524115845561028,
				0.029524117708206177,
				0.029524115845561028
			],
			"translation":[
				-0.3528270721435547,
				0,
				0
			]
		}
	],
	"materials":[
		{
			"doubleSided":true,
			"extensions":{
				"KHR_materials_unlit":{}
			},
			"name":"Material.030",
			"pbrMetallicRoughness":{
				"baseColorTexture":{
					"index":0
				},
				"metallicFactor":0,
				"roughnessFactor":0.9
			}
		},
		{
			"doubleSided":true,
			"extensions":{
				"KHR_materials_unlit":{}
			},
			"name":"Material.031",
			"pbrMetallicRoughness":{
				"baseColorTexture":{
					"index":1
				},
				"metallicFactor":0,
				"roughnessFactor":0.9
			}
		},
		{
			"doubleSided":true,
			"extensions":{
				"KHR_materials_unlit":{}
			},
			"name":"Material.033",
			"pbrMetallicRoughness":{
				"baseColorTexture":{
					"index":2
				},
				"metallicFactor":0,
				"roughnessFactor":0.9
			}
		}
	],
	"meshes":[
		{
			"name":"Circle.002",
			"primitives":[
				{
					"attributes":{
						"POSITION":0,
						"NORMAL":1,
						"TEXCOORD_0":2
					},
					"indices":3,
					"material":0
				},
				{
					"attributes":{
						"POSITION":4,
						"NORMAL":5,
						"TEXCOORD_0":6
					},
					"indices":7,
					"material":1
				},
				{
					"attributes":{
						"POSITION":8,
						"NORMAL":9,
						"TEXCOORD_0":10
					},
					"indices":11,
					"material":2
				}
			]
		}
	],
	"textures":[
		{
			"sampler":0,
			"source":0
		},
		{
			"sampler":0,
			"source":0
		},
		{
			"sampler":0,
			"source":0
		}
	],
	"images":[
		{
			"mimeType":"image/png",
			"name":"Drzwi",
			"uri":"Textures/Drzwi.png"
		}
	],
	"accessors":[
		{
			"bufferView":0,
			"componentType":5126,
			"count":80,
			"max":[
				8.3314208984375,
				13.019966125488281,
				20.75979232788086
			],
			"min":[
				-95.34208679199219,
				11.840559005737305,
				-55.80451965332031
			],
			"type":"VEC3"
		},
		{
			"bufferView":1,
			"componentType":5126,
			"count":80,
			"type":"VEC3"
		},
		{
			"bufferView":2,
			"componentType":5126,
			"count":80,
			"type":"VEC2"
		},
		{
			"bufferView":3,
			"componentType":5123,
			"count":216,
			"type":"SCALAR"
		},
		{
			"bufferView":4,
			"componentType":5126,
			"count":290,
			"max":[
				-5.308622360229492,
				13.087305068969727,
				2.566720962524414
			],
			"min":[
				-67.87201690673828,
				10.80753231048584,
				-53.415504455566406
			],
			"type":"VEC3"
		},
		{
			"bufferView":5,
			"componentType":5126,
			"count":290,
			"type":"VEC3"
		},
		{
			"bufferView":6,
			"componentType":5126,
			"count":290,
			"type":"VEC2"
		},
		{
			"bufferView":7,
			"componentType":5123,
			"count":612,
			"type":"SCALAR"
		},
		{
			"bufferView":8,
			"componentType":5126,
			"count":8,
			"max":[
				3.5113525390625,
				12.939497947692871,
				16.134714126586914
			],
			"min":[
				-90.52201843261719,
				11.921024322509766,
				-51.179443359375
			],
			"type":"VEC3"
		},
		{
			"bufferView":9,
			"componentType":5126,
			"count":8,
			"type":"VEC3"
		},
		{
			"bufferView":10,
			"componentType":5126,
			"count":8,
			"type":"VEC2"
		},
		{
			"bufferView":11,
			"componentType":5123,
			"count":12,
			"type":"SCALAR"
		}
	],
	"bufferViews":[
		{
			"buffer":0,
			"byteLength":960,
			"byteOffset":0,
			"target":34962
		},
		{
			"buffer":0,
			"byteLength":960,
			"byteOffset":960,
			"target":34962
		},
		{
			"buffer":0,
			"byteLength":640,
			"byteOffset":1920,
			"target":34962
		},
		{
			"buffer":0,
			"byteLength":432,
			"byteOffset":2560,
			"target":34963
		},
		{
			"buffer":0,
			"byteLength":3480,
			"byteOffset":2992,
			"target":34962
		},
		{
			"buffer":0,
			"byteLength":3480,
			"byteOffset":6472,
			"target":34962
		},
		{
			"buffer":0,
			"byteLength":2320,
			"byteOffset":9952,
			"target":34962
		},
		{
			"buffer":0,
			"byteLength":1224,
			"byteOffset":12272,
			"target":34963
		},
		{
			"buffer":0,
			"byteLength":96,
			"byteOffset":13496,
			"target":34962
		},
		{
			"buffer":0,
			"byteLength":96,
			"byteOffset":13592,
			"target":34962
		},
		{
			"buffer":0,
			"byteLength":64,
			"byteOffset":13688,
			"target":34962
		},
		{
			"buffer":0,
			"byteLength":24,
			"byteOffset":13752,
			"target":34963
		}
	],
	"samplers":[
		{
			"magFilter":9729,
			"minFilter":9987
		}
	],
	"buffers":[
		{
			"byteLength":13776,
			"uri":"Drzwi.bin"
		}
	]
}
