{
	"asset":{
		"generator":"Khronos glTF Blender I/O v4.2.83",
		"version":"2.0"
	},
	"extensionsUsed":[
		"KHR_materials_unlit"
	],
	"scene":0,
	"scenes":[
		{
			"name":"Scene",
			"nodes":[
				0
			]
		}
	],
	"nodes":[
		{
			"mesh":0,
			"name":"Cube.001",
			"scale":[
				1.1691066026687622,
				1.1983704566955566,
				0.6934773325920105
			],
			"translation":[
				-0.004410585388541222,
				0.6733099818229675,
				0
			]
		}
	],
	"materials":[
		{
			"doubleSided":true,
			"extensions":{
				"KHR_materials_unlit":{}
			},
			"name":"Material.006",
			"pbrMetallicRoughness":{
				"baseColorTexture":{
					"index":0
				},
				"metallicFactor":0,
				"roughnessFactor":0.9
			}
		},
		{
			"doubleSided":true,
			"extensions":{
				"KHR_materials_unlit":{}
			},
			"name":"Material.009",
			"pbrMetallicRoughness":{
				"baseColorTexture":{
					"index":1
				},
				"metallicFactor":0,
				"roughnessFactor":0.9
			}
		},
		{
			"doubleSided":true,
			"extensions":{
				"KHR_materials_unlit":{}
			},
			"name":"Material.010",
			"pbrMetallicRoughness":{
				"baseColorTexture":{
					"index":2
				},
				"metallicFactor":0,
				"roughnessFactor":0.9
			}
		},
		{
			"doubleSided":true,
			"extensions":{
				"KHR_materials_unlit":{}
			},
			"name":"Material.002",
			"pbrMetallicRoughness":{
				"baseColorTexture":{
					"index":3
				},
				"metallicFactor":0,
				"roughnessFactor":0.9
			}
		},
		{
			"doubleSided":true,
			"extensions":{
				"KHR_materials_unlit":{}
			},
			"name":"Material.005",
			"pbrMetallicRoughness":{
				"metallicFactor":0,
				"roughnessFactor":0.9
			}
		},
		{
			"doubleSided":true,
			"extensions":{
				"KHR_materials_unlit":{}
			},
			"name":"Material.008",
			"pbrMetallicRoughness":{
				"baseColorTexture":{
					"index":4
				},
				"metallicFactor":0,
				"roughnessFactor":0.9
			}
		},
		{
			"doubleSided":true,
			"extensions":{
				"KHR_materials_unlit":{}
			},
			"name":"Buty",
			"pbrMetallicRoughness":{
				"baseColorTexture":{
					"index":5
				},
				"metallicFactor":0,
				"roughnessFactor":0.9
			}
		}
	],
	"meshes":[
		{
			"name":"Cube.002",
			"primitives":[
				{
					"attributes":{
						"POSITION":0,
						"NORMAL":1,
						"TEXCOORD_0":2
					},
					"indices":3,
					"material":0
				},
				{
					"attributes":{
						"POSITION":4,
						"NORMAL":5,
						"TEXCOORD_0":6
					},
					"indices":7,
					"material":1
				},
				{
					"attributes":{
						"POSITION":8,
						"NORMAL":9,
						"TEXCOORD_0":10
					},
					"indices":11,
					"material":2
				},
				{
					"attributes":{
						"POSITION":12,
						"NORMAL":13,
						"TEXCOORD_0":14
					},
					"indices":15,
					"material":3
				},
				{
					"attributes":{
						"POSITION":16,
						"NORMAL":17,
						"TEXCOORD_0":18
					},
					"indices":19,
					"material":4
				},
				{
					"attributes":{
						"POSITION":20,
						"NORMAL":21,
						"TEXCOORD_0":22
					},
					"indices":23,
					"material":5
				},
				{
					"attributes":{
						"POSITION":24,
						"NORMAL":25,
						"TEXCOORD_0":26
					},
					"indices":27,
					"material":6
				}
			]
		}
	],
	"textures":[
		{
			"sampler":0,
			"source":0
		},
		{
			"sampler":0,
			"source":0
		},
		{
			"sampler":0,
			"source":0
		},
		{
			"sampler":0,
			"source":0
		},
		{
			"sampler":0,
			"source":0
		},
		{
			"sampler":0,
			"source":0
		}
	],
	"images":[
		{
			"mimeType":"image/png",
			"name":"MalaLadaSklep",
			"uri":"Textures/MalaLadaSklep.png"
		}
	],
	"accessors":[
		{
			"bufferView":0,
			"componentType":5126,
			"count":16,
			"max":[
				0.2538442611694336,
				-0.34658974409103394,
				0.7447024583816528
			],
			"min":[
				-0.2538442015647888,
				-0.34658974409103394,
				-0.7447024583816528
			],
			"type":"VEC3"
		},
		{
			"bufferView":1,
			"componentType":5126,
			"count":16,
			"type":"VEC3"
		},
		{
			"bufferView":2,
			"componentType":5126,
			"count":16,
			"type":"VEC2"
		},
		{
			"bufferView":3,
			"componentType":5123,
			"count":42,
			"type":"SCALAR"
		},
		{
			"bufferView":4,
			"componentType":5126,
			"count":40,
			"max":[
				0.2538442611694336,
				0.34658944606781006,
				0.7447024583816528
			],
			"min":[
				-0.2538442015647888,
				0.316228449344635,
				-0.7447024583816528
			],
			"type":"VEC3"
		},
		{
			"bufferView":5,
			"componentType":5126,
			"count":40,
			"type":"VEC3"
		},
		{
			"bufferView":6,
			"componentType":5126,
			"count":40,
			"type":"VEC2"
		},
		{
			"bufferView":7,
			"componentType":5123,
			"count":96,
			"type":"SCALAR"
		},
		{
			"bufferView":8,
			"componentType":5126,
			"count":40,
			"max":[
				0.25384417176246643,
				0.316228449344635,
				0.7447023391723633
			],
			"min":[
				-0.25384417176246643,
				-0.3162287473678589,
				-0.7447023391723633
			],
			"type":"VEC3"
		},
		{
			"bufferView":9,
			"componentType":5126,
			"count":40,
			"type":"VEC3"
		},
		{
			"bufferView":10,
			"componentType":5126,
			"count":40,
			"type":"VEC2"
		},
		{
			"bufferView":11,
			"componentType":5123,
			"count":96,
			"type":"SCALAR"
		},
		{
			"bufferView":12,
			"componentType":5126,
			"count":40,
			"max":[
				0.2538442611694336,
				-0.3162287473678589,
				0.7447024583816528
			],
			"min":[
				-0.2538442015647888,
				-0.34658974409103394,
				-0.7447024583816528
			],
			"type":"VEC3"
		},
		{
			"bufferView":13,
			"componentType":5126,
			"count":40,
			"type":"VEC3"
		},
		{
			"bufferView":14,
			"componentType":5126,
			"count":40,
			"type":"VEC2"
		},
		{
			"bufferView":15,
			"componentType":5123,
			"count":96,
			"type":"SCALAR"
		},
		{
			"bufferView":16,
			"componentType":5126,
			"count":16,
			"max":[
				0.2538442611694336,
				0.34658944606781006,
				0.7447024583816528
			],
			"min":[
				-0.2538442015647888,
				0.34658944606781006,
				-0.7447024583816528
			],
			"type":"VEC3"
		},
		{
			"bufferView":17,
			"componentType":5126,
			"count":16,
			"type":"VEC3"
		},
		{
			"bufferView":18,
			"componentType":5126,
			"count":16,
			"type":"VEC2"
		},
		{
			"bufferView":19,
			"componentType":5123,
			"count":42,
			"type":"SCALAR"
		},
		{
			"bufferView":20,
			"componentType":5126,
			"count":112,
			"max":[
				0.16176176071166992,
				-0.21578249335289001,
				0.5521491169929504
			],
			"min":[
				-0.15421649813652039,
				-0.5236499905586243,
				-0.5521491169929504
			],
			"type":"VEC3"
		},
		{
			"bufferView":21,
			"componentType":5126,
			"count":112,
			"type":"VEC3"
		},
		{
			"bufferView":22,
			"componentType":5126,
			"count":112,
			"type":"VEC2"
		},
		{
			"bufferView":23,
			"componentType":5123,
			"count":264,
			"type":"SCALAR"
		},
		{
			"bufferView":24,
			"componentType":5126,
			"count":176,
			"max":[
				0.16959504783153534,
				-0.5236499905586243,
				0.5653550028800964
			],
			"min":[
				-0.1620497852563858,
				-0.5756356716156006,
				-0.5653550028800964
			],
			"type":"VEC3"
		},
		{
			"bufferView":25,
			"componentType":5126,
			"count":176,
			"type":"VEC3"
		},
		{
			"bufferView":26,
			"componentType":5126,
			"count":176,
			"type":"VEC2"
		},
		{
			"bufferView":27,
			"componentType":5123,
			"count":456,
			"type":"SCALAR"
		}
	],
	"bufferViews":[
		{
			"buffer":0,
			"byteLength":192,
			"byteOffset":0,
			"target":34962
		},
		{
			"buffer":0,
			"byteLength":192,
			"byteOffset":192,
			"target":34962
		},
		{
			"buffer":0,
			"byteLength":128,
			"byteOffset":384,
			"target":34962
		},
		{
			"buffer":0,
			"byteLength":84,
			"byteOffset":512,
			"target":34963
		},
		{
			"buffer":0,
			"byteLength":480,
			"byteOffset":596,
			"target":34962
		},
		{
			"buffer":0,
			"byteLength":480,
			"byteOffset":1076,
			"target":34962
		},
		{
			"buffer":0,
			"byteLength":320,
			"byteOffset":1556,
			"target":34962
		},
		{
			"buffer":0,
			"byteLength":192,
			"byteOffset":1876,
			"target":34963
		},
		{
			"buffer":0,
			"byteLength":480,
			"byteOffset":2068,
			"target":34962
		},
		{
			"buffer":0,
			"byteLength":480,
			"byteOffset":2548,
			"target":34962
		},
		{
			"buffer":0,
			"byteLength":320,
			"byteOffset":3028,
			"target":34962
		},
		{
			"buffer":0,
			"byteLength":192,
			"byteOffset":3348,
			"target":34963
		},
		{
			"buffer":0,
			"byteLength":480,
			"byteOffset":3540,
			"target":34962
		},
		{
			"buffer":0,
			"byteLength":480,
			"byteOffset":4020,
			"target":34962
		},
		{
			"buffer":0,
			"byteLength":320,
			"byteOffset":4500,
			"target":34962
		},
		{
			"buffer":0,
			"byteLength":192,
			"byteOffset":4820,
			"target":34963
		},
		{
			"buffer":0,
			"byteLength":192,
			"byteOffset":5012,
			"target":34962
		},
		{
			"buffer":0,
			"byteLength":192,
			"byteOffset":5204,
			"target":34962
		},
		{
			"buffer":0,
			"byteLength":128,
			"byteOffset":5396,
			"target":34962
		},
		{
			"buffer":0,
			"byteLength":84,
			"byteOffset":5524,
			"target":34963
		},
		{
			"buffer":0,
			"byteLength":1344,
			"byteOffset":5608,
			"target":34962
		},
		{
			"buffer":0,
			"byteLength":1344,
			"byteOffset":6952,
			"target":34962
		},
		{
			"buffer":0,
			"byteLength":896,
			"byteOffset":8296,
			"target":34962
		},
		{
			"buffer":0,
			"byteLength":528,
			"byteOffset":9192,
			"target":34963
		},
		{
			"buffer":0,
			"byteLength":2112,
			"byteOffset":9720,
			"target":34962
		},
		{
			"buffer":0,
			"byteLength":2112,
			"byteOffset":11832,
			"target":34962
		},
		{
			"buffer":0,
			"byteLength":1408,
			"byteOffset":13944,
			"target":34962
		},
		{
			"buffer":0,
			"byteLength":912,
			"byteOffset":15352,
			"target":34963
		}
	],
	"samplers":[
		{
			"magFilter":9729,
			"minFilter":9987
		}
	],
	"buffers":[
		{
			"byteLength":16264,
			"uri":"MalaLadaSklep.bin"
		}
	]
}
