{
	"asset":{
		"generator":"Khronos glTF Blender I/O v4.2.83",
		"version":"2.0"
	},
	"extensionsUsed":[
		"KHR_materials_unlit"
	],
	"scene":0,
	"scenes":[
		{
			"name":"Scene",
			"nodes":[
				0
			]
		}
	],
	"nodes":[
		{
			"mesh":0,
			"name":"Circle.002",
			"scale":[
				0.20731712877750397,
				0.24091598391532898,
				0.20731714367866516
			],
			"translation":[
				0.6717445254325867,
				3.7840359210968018,
				3.699298620223999
			]
		}
	],
	"materials":[
		{
			"doubleSided":true,
			"extensions":{
				"KHR_materials_unlit":{}
			},
			"name":"MeatGrinder",
			"pbrMetallicRoughness":{
				"baseColorTexture":{
					"index":0,
					"texCoord":1
				},
				"metallicFactor":0,
				"roughnessFactor":0.9
			}
		}
	],
	"meshes":[
		{
			"name":"Circle.003",
			"primitives":[
				{
					"attributes":{
						"POSITION":0,
						"NORMAL":1,
						"TEXCOORD_0":2,
						"TEXCOORD_1":3,
						"COLOR_0":4,
						"COLOR_1":5
					},
					"indices":6,
					"material":0
				}
			]
		}
	],
	"textures":[
		{
			"sampler":0,
			"source":0
		}
	],
	"images":[
		{
			"mimeType":"image/png",
			"name":"MeatGrinder",
			"uri":"Textures/MeatGrinder.png"
		}
	],
	"accessors":[
		{
			"bufferView":0,
			"componentType":5126,
			"count":2388,
			"max":[
				7.707843780517578,
				9.175378799438477,
				5.195456504821777
			],
			"min":[
				-12.784013748168945,
				-16.8675479888916,
				-5.195456504821777
			],
			"type":"VEC3"
		},
		{
			"bufferView":1,
			"componentType":5126,
			"count":2388,
			"type":"VEC3"
		},
		{
			"bufferView":2,
			"componentType":5126,
			"count":2388,
			"type":"VEC2"
		},
		{
			"bufferView":3,
			"componentType":5126,
			"count":2388,
			"type":"VEC2"
		},
		{
			"bufferView":4,
			"componentType":5121,
			"count":2388,
			"normalized":true,
			"type":"VEC4"
		},
		{
			"bufferView":5,
			"componentType":5126,
			"count":2388,
			"type":"VEC3"
		},
		{
			"bufferView":6,
			"componentType":5123,
			"count":7224,
			"type":"SCALAR"
		}
	],
	"bufferViews":[
		{
			"buffer":0,
			"byteLength":28656,
			"byteOffset":0,
			"target":34962
		},
		{
			"buffer":0,
			"byteLength":28656,
			"byteOffset":28656,
			"target":34962
		},
		{
			"buffer":0,
			"byteLength":19104,
			"byteOffset":57312,
			"target":34962
		},
		{
			"buffer":0,
			"byteLength":19104,
			"byteOffset":76416,
			"target":34962
		},
		{
			"buffer":0,
			"byteLength":9552,
			"byteOffset":95520,
			"target":34962
		},
		{
			"buffer":0,
			"byteLength":28656,
			"byteOffset":105072,
			"target":34962
		},
		{
			"buffer":0,
			"byteLength":14448,
			"byteOffset":133728,
			"target":34963
		}
	],
	"samplers":[
		{
			"magFilter":9729,
			"minFilter":9987
		}
	],
	"buffers":[
		{
			"byteLength":148176,
			"uri":"MeatGrinder.bin"
		}
	]
}
