{
	"asset":{
		"generator":"Khronos glTF Blender I/O v4.2.83",
		"version":"2.0"
	},
	"extensionsUsed":[
		"KHR_materials_unlit"
	],
	"scene":0,
	"scenes":[
		{
			"name":"Scene",
			"nodes":[
				0
			]
		}
	],
	"nodes":[
		{
			"mesh":0,
			"name":"Korek1",
			"rotation":[
				0.7071068286895752,
				0,
				0,
				0.7071068286895752
			],
			"translation":[
				0,
				1.591543436050415,
				0
			]
		}
	],
	"materials":[
		{
			"doubleSided":true,
			"extensions":{
				"KHR_materials_unlit":{}
			},
			"name":"Material.047",
			"pbrMetallicRoughness":{
				"baseColorTexture":{
					"index":0
				},
				"metallicFactor":0,
				"roughnessFactor":0.9
			}
		},
		{
			"doubleSided":true,
			"extensions":{
				"KHR_materials_unlit":{}
			},
			"name":"Material.048",
			"pbrMetallicRoughness":{
				"baseColorTexture":{
					"index":1
				},
				"metallicFactor":0,
				"roughnessFactor":0.9
			}
		}
	],
	"meshes":[
		{
			"name":"Korek1",
			"primitives":[
				{
					"attributes":{
						"POSITION":0,
						"NORMAL":1,
						"TEXCOORD_0":2
					},
					"indices":3,
					"material":0
				},
				{
					"attributes":{
						"POSITION":4,
						"NORMAL":5,
						"TEXCOORD_0":6
					},
					"indices":7,
					"material":1
				}
			]
		}
	],
	"textures":[
		{
			"sampler":0,
			"source":0
		},
		{
			"sampler":0,
			"source":0
		}
	],
	"images":[
		{
			"mimeType":"image/png",
			"name":"PoloCockta",
			"uri":"Textures/PoloCockta.png"
		}
	],
	"accessors":[
		{
			"bufferView":0,
			"componentType":5126,
			"count":447,
			"max":[
				0.5127371549606323,
				0.512736976146698,
				3.5936617851257324
			],
			"min":[
				-0.5127371549606323,
				-0.5127372741699219,
				0.044030070304870605
			],
			"type":"VEC3"
		},
		{
			"bufferView":1,
			"componentType":5126,
			"count":447,
			"type":"VEC3"
		},
		{
			"bufferView":2,
			"componentType":5126,
			"count":447,
			"type":"VEC2"
		},
		{
			"bufferView":3,
			"componentType":5123,
			"count":1620,
			"type":"SCALAR"
		},
		{
			"bufferView":4,
			"componentType":5126,
			"count":489,
			"max":[
				0.28325000405311584,
				0.28324997425079346,
				0.1038057804107666
			],
			"min":[
				-0.28325000405311584,
				-0.28325003385543823,
				-0.05246305465698242
			],
			"type":"VEC3"
		},
		{
			"bufferView":5,
			"componentType":5126,
			"count":489,
			"type":"VEC3"
		},
		{
			"bufferView":6,
			"componentType":5126,
			"count":489,
			"type":"VEC2"
		},
		{
			"bufferView":7,
			"componentType":5123,
			"count":1224,
			"type":"SCALAR"
		}
	],
	"bufferViews":[
		{
			"buffer":0,
			"byteLength":5364,
			"byteOffset":0,
			"target":34962
		},
		{
			"buffer":0,
			"byteLength":5364,
			"byteOffset":5364,
			"target":34962
		},
		{
			"buffer":0,
			"byteLength":3576,
			"byteOffset":10728,
			"target":34962
		},
		{
			"buffer":0,
			"byteLength":3240,
			"byteOffset":14304,
			"target":34963
		},
		{
			"buffer":0,
			"byteLength":5868,
			"byteOffset":17544,
			"target":34962
		},
		{
			"buffer":0,
			"byteLength":5868,
			"byteOffset":23412,
			"target":34962
		},
		{
			"buffer":0,
			"byteLength":3912,
			"byteOffset":29280,
			"target":34962
		},
		{
			"buffer":0,
			"byteLength":2448,
			"byteOffset":33192,
			"target":34963
		}
	],
	"samplers":[
		{
			"magFilter":9729,
			"minFilter":9987
		}
	],
	"buffers":[
		{
			"byteLength":35640,
			"uri":"PoloCockta.bin"
		}
	]
}
