{
	"asset":{
		"generator":"Khronos glTF Blender I/O v4.2.83",
		"version":"2.0"
	},
	"extensionsUsed":[
		"KHR_materials_unlit"
	],
	"scene":0,
	"scenes":[
		{
			"name":"Scene",
			"nodes":[
				0
			]
		}
	],
	"nodes":[
		{
			"mesh":0,
			"name":"Cube.001",
			"translation":[
				0,
				0,
				16.256973266601562
			]
		}
	],
	"materials":[
		{
			"doubleSided":true,
			"extensions":{
				"KHR_materials_unlit":{}
			},
			"name":"Waga",
			"pbrMetallicRoughness":{
				"baseColorTexture":{
					"index":0
				},
				"metallicFactor":0,
				"roughnessFactor":0.9
			}
		}
	],
	"meshes":[
		{
			"name":"Cube.002",
			"primitives":[
				{
					"attributes":{
						"POSITION":0,
						"NORMAL":1,
						"TEXCOORD_0":2
					},
					"indices":3,
					"material":0
				}
			]
		}
	],
	"textures":[
		{
			"sampler":0,
			"source":0
		}
	],
	"images":[
		{
			"mimeType":"image/png",
			"name":"Waga",
			"uri":"Textures/Waga.png"
		}
	],
	"accessors":[
		{
			"bufferView":0,
			"componentType":5126,
			"count":2128,
			"max":[
				2.5702614784240723,
				12.956826210021973,
				5.572549819946289
			],
			"min":[
				-2.5702614784240723,
				-0.07353758811950684,
				-5.652959823608398
			],
			"type":"VEC3"
		},
		{
			"bufferView":1,
			"componentType":5126,
			"count":2128,
			"type":"VEC3"
		},
		{
			"bufferView":2,
			"componentType":5126,
			"count":2128,
			"type":"VEC2"
		},
		{
			"bufferView":3,
			"componentType":5123,
			"count":7161,
			"type":"SCALAR"
		}
	],
	"bufferViews":[
		{
			"buffer":0,
			"byteLength":25536,
			"byteOffset":0,
			"target":34962
		},
		{
			"buffer":0,
			"byteLength":25536,
			"byteOffset":25536,
			"target":34962
		},
		{
			"buffer":0,
			"byteLength":17024,
			"byteOffset":51072,
			"target":34962
		},
		{
			"buffer":0,
			"byteLength":14322,
			"byteOffset":68096,
			"target":34963
		}
	],
	"samplers":[
		{
			"magFilter":9729,
			"minFilter":9987
		}
	],
	"buffers":[
		{
			"byteLength":82420,
			"uri":"Waga.bin"
		}
	]
}
