{
	"asset":{
		"generator":"Khronos glTF Blender I/O v4.2.83",
		"version":"2.0"
	},
	"extensionsUsed":[
		"KHR_materials_unlit"
	],
	"scene":0,
	"scenes":[
		{
			"name":"Scene",
			"nodes":[
				0
			]
		}
	],
	"nodes":[
		{
			"mesh":0,
			"name":"Butelka2"
		}
	],
	"materials":[
		{
			"doubleSided":true,
			"extensions":{
				"KHR_materials_unlit":{}
			},
			"name":"Material.005",
			"pbrMetallicRoughness":{
				"baseColorTexture":{
					"index":0
				},
				"metallicFactor":0,
				"roughnessFactor":0.9
			}
		},
		{
			"doubleSided":true,
			"extensions":{
				"KHR_materials_unlit":{}
			},
			"name":"Kwasik",
			"pbrMetallicRoughness":{
				"baseColorTexture":{
					"index":1
				},
				"metallicFactor":0,
				"roughnessFactor":0.9
			}
		}
	],
	"meshes":[
		{
			"name":"Plane",
			"primitives":[
				{
					"attributes":{
						"POSITION":0,
						"NORMAL":1,
						"TEXCOORD_0":2
					},
					"indices":3,
					"material":0
				},
				{
					"attributes":{
						"POSITION":4,
						"NORMAL":5,
						"TEXCOORD_0":6
					},
					"indices":7,
					"material":1
				}
			]
		}
	],
	"textures":[
		{
			"sampler":0,
			"source":0
		},
		{
			"sampler":0,
			"source":0
		}
	],
	"images":[
		{
			"mimeType":"image/png",
			"name":"Butelka2",
			"uri":"Textures/Butelka2.png"
		}
	],
	"accessors":[
		{
			"bufferView":0,
			"componentType":5126,
			"count":285,
			"max":[
				0.6527572274208069,
				4.819980621337891,
				0.6527572274208069
			],
			"min":[
				-0.6527572870254517,
				0.13809241354465485,
				-0.6527573466300964
			],
			"type":"VEC3"
		},
		{
			"bufferView":1,
			"componentType":5126,
			"count":285,
			"type":"VEC3"
		},
		{
			"bufferView":2,
			"componentType":5126,
			"count":285,
			"type":"VEC2"
		},
		{
			"bufferView":3,
			"componentType":5123,
			"count":1332,
			"type":"SCALAR"
		},
		{
			"bufferView":4,
			"componentType":5126,
			"count":384,
			"max":[
				0.27792444825172424,
				4.865305423736572,
				0.27792447805404663
			],
			"min":[
				-0.27792447805404663,
				4.709035873413086,
				-0.27792444825172424
			],
			"type":"VEC3"
		},
		{
			"bufferView":5,
			"componentType":5126,
			"count":384,
			"type":"VEC3"
		},
		{
			"bufferView":6,
			"componentType":5126,
			"count":384,
			"type":"VEC2"
		},
		{
			"bufferView":7,
			"componentType":5123,
			"count":1152,
			"type":"SCALAR"
		}
	],
	"bufferViews":[
		{
			"buffer":0,
			"byteLength":3420,
			"byteOffset":0,
			"target":34962
		},
		{
			"buffer":0,
			"byteLength":3420,
			"byteOffset":3420,
			"target":34962
		},
		{
			"buffer":0,
			"byteLength":2280,
			"byteOffset":6840,
			"target":34962
		},
		{
			"buffer":0,
			"byteLength":2664,
			"byteOffset":9120,
			"target":34963
		},
		{
			"buffer":0,
			"byteLength":4608,
			"byteOffset":11784,
			"target":34962
		},
		{
			"buffer":0,
			"byteLength":4608,
			"byteOffset":16392,
			"target":34962
		},
		{
			"buffer":0,
			"byteLength":3072,
			"byteOffset":21000,
			"target":34962
		},
		{
			"buffer":0,
			"byteLength":2304,
			"byteOffset":24072,
			"target":34963
		}
	],
	"samplers":[
		{
			"magFilter":9729,
			"minFilter":9987
		}
	],
	"buffers":[
		{
			"byteLength":26376,
			"uri":"Butelka2.bin"
		}
	]
}
