{
	"asset":{
		"generator":"Khronos glTF Blender I/O v4.2.83",
		"version":"2.0"
	},
	"extensionsUsed":[
		"KHR_materials_unlit"
	],
	"scene":0,
	"scenes":[
		{
			"name":"Scene",
			"nodes":[
				0
			]
		}
	],
	"nodes":[
		{
			"mesh":0,
			"name":"Cube.004",
			"scale":[
				1.1691066026687622,
				0.5273430347442627,
				0.6934773325920105
			]
		}
	],
	"materials":[
		{
			"doubleSided":true,
			"extensions":{
				"KHR_materials_unlit":{}
			},
			"name":"Material.004",
			"pbrMetallicRoughness":{
				"baseColorTexture":{
					"index":0
				},
				"metallicFactor":0,
				"roughnessFactor":0.9
			}
		},
		{
			"doubleSided":true,
			"extensions":{
				"KHR_materials_unlit":{}
			},
			"name":"Material.009",
			"pbrMetallicRoughness":{
				"baseColorTexture":{
					"index":1
				},
				"metallicFactor":0,
				"roughnessFactor":0.9
			}
		},
		{
			"doubleSided":true,
			"extensions":{
				"KHR_materials_unlit":{}
			},
			"name":"Material",
			"pbrMetallicRoughness":{
				"baseColorTexture":{
					"index":2
				},
				"metallicFactor":0,
				"roughnessFactor":0.9
			}
		},
		{
			"doubleSided":true,
			"extensions":{
				"KHR_materials_unlit":{}
			},
			"name":"Material.008",
			"pbrMetallicRoughness":{
				"baseColorTexture":{
					"index":3
				},
				"metallicFactor":0,
				"roughnessFactor":0.9
			}
		}
	],
	"meshes":[
		{
			"name":"Cube.003",
			"primitives":[
				{
					"attributes":{
						"POSITION":0,
						"NORMAL":1,
						"TEXCOORD_0":2
					},
					"indices":3,
					"material":0
				},
				{
					"attributes":{
						"POSITION":4,
						"NORMAL":5,
						"TEXCOORD_0":6
					},
					"indices":7,
					"material":1
				},
				{
					"attributes":{
						"POSITION":8,
						"NORMAL":9,
						"TEXCOORD_0":10
					},
					"indices":11,
					"material":2
				},
				{
					"attributes":{
						"POSITION":12,
						"NORMAL":13,
						"TEXCOORD_0":14
					},
					"indices":15,
					"material":3
				},
				{
					"attributes":{
						"POSITION":16,
						"NORMAL":17,
						"TEXCOORD_0":18
					},
					"indices":19,
					"material":3
				}
			]
		}
	],
	"textures":[
		{
			"sampler":0,
			"source":0
		},
		{
			"sampler":0,
			"source":1
		},
		{
			"sampler":0,
			"source":1
		},
		{
			"sampler":0,
			"source":1
		}
	],
	"images":[
		{
			"mimeType":"image/png",
			"name":"LadaSkelp",
			"uri":"Textures/LadaSkelp.png"
		},
		{
			"mimeType":"image/png",
			"name":"LadaGazety",
			"uri":"Textures/LadaGazety.png"
		}
	],
	"accessors":[
		{
			"bufferView":0,
			"componentType":5126,
			"count":43,
			"max":[
				0.2925216555595398,
				2.174539089202881,
				2.2842495441436768
			],
			"min":[
				-0.4247203469276428,
				0.18524205684661865,
				-2.2842495441436768
			],
			"type":"VEC3"
		},
		{
			"bufferView":1,
			"componentType":5126,
			"count":43,
			"type":"VEC3"
		},
		{
			"bufferView":2,
			"componentType":5126,
			"count":43,
			"type":"VEC2"
		},
		{
			"bufferView":3,
			"componentType":5123,
			"count":90,
			"type":"SCALAR"
		},
		{
			"bufferView":4,
			"componentType":5126,
			"count":34,
			"max":[
				0.17054805159568787,
				2.212386131286621,
				2.2842495441436768
			],
			"min":[
				-0.4247203469276428,
				2.174539089202881,
				-2.2842495441436768
			],
			"type":"VEC3"
		},
		{
			"bufferView":5,
			"componentType":5126,
			"count":34,
			"type":"VEC3"
		},
		{
			"bufferView":6,
			"componentType":5126,
			"count":34,
			"type":"VEC2"
		},
		{
			"bufferView":7,
			"componentType":5123,
			"count":72,
			"type":"SCALAR"
		},
		{
			"bufferView":8,
			"componentType":5126,
			"count":4,
			"max":[
				0.15870842337608337,
				2.212386131286621,
				2.2842495441436768
			],
			"min":[
				-0.41288071870803833,
				2.212386131286621,
				-2.2842495441436768
			],
			"type":"VEC3"
		},
		{
			"bufferView":9,
			"componentType":5126,
			"count":4,
			"type":"VEC3"
		},
		{
			"bufferView":10,
			"componentType":5126,
			"count":4,
			"type":"VEC2"
		},
		{
			"bufferView":11,
			"componentType":5123,
			"count":6,
			"type":"SCALAR"
		},
		{
			"bufferView":12,
			"componentType":5126,
			"count":104,
			"max":[
				0.04132314771413803,
				0.34457993507385254,
				2.1265902519226074
			],
			"min":[
				-0.3916754722595215,
				0.03671245276927948,
				-2.1265902519226074
			],
			"type":"VEC3"
		},
		{
			"bufferView":13,
			"componentType":5126,
			"count":104,
			"type":"VEC3"
		},
		{
			"bufferView":14,
			"componentType":5126,
			"count":104,
			"type":"VEC2"
		},
		{
			"bufferView":15,
			"componentType":5123,
			"count":264,
			"type":"SCALAR"
		},
		{
			"bufferView":16,
			"componentType":5126,
			"count":176,
			"max":[
				0.04915643483400345,
				0.03671245276927948,
				2.139796257019043
			],
			"min":[
				-0.3995087444782257,
				-0.015273228287696838,
				-2.139796257019043
			],
			"type":"VEC3"
		},
		{
			"bufferView":17,
			"componentType":5126,
			"count":176,
			"type":"VEC3"
		},
		{
			"bufferView":18,
			"componentType":5126,
			"count":176,
			"type":"VEC2"
		},
		{
			"bufferView":19,
			"componentType":5123,
			"count":456,
			"type":"SCALAR"
		}
	],
	"bufferViews":[
		{
			"buffer":0,
			"byteLength":516,
			"byteOffset":0,
			"target":34962
		},
		{
			"buffer":0,
			"byteLength":516,
			"byteOffset":516,
			"target":34962
		},
		{
			"buffer":0,
			"byteLength":344,
			"byteOffset":1032,
			"target":34962
		},
		{
			"buffer":0,
			"byteLength":180,
			"byteOffset":1376,
			"target":34963
		},
		{
			"buffer":0,
			"byteLength":408,
			"byteOffset":1556,
			"target":34962
		},
		{
			"buffer":0,
			"byteLength":408,
			"byteOffset":1964,
			"target":34962
		},
		{
			"buffer":0,
			"byteLength":272,
			"byteOffset":2372,
			"target":34962
		},
		{
			"buffer":0,
			"byteLength":144,
			"byteOffset":2644,
			"target":34963
		},
		{
			"buffer":0,
			"byteLength":48,
			"byteOffset":2788,
			"target":34962
		},
		{
			"buffer":0,
			"byteLength":48,
			"byteOffset":2836,
			"target":34962
		},
		{
			"buffer":0,
			"byteLength":32,
			"byteOffset":2884,
			"target":34962
		},
		{
			"buffer":0,
			"byteLength":12,
			"byteOffset":2916,
			"target":34963
		},
		{
			"buffer":0,
			"byteLength":1248,
			"byteOffset":2928,
			"target":34962
		},
		{
			"buffer":0,
			"byteLength":1248,
			"byteOffset":4176,
			"target":34962
		},
		{
			"buffer":0,
			"byteLength":832,
			"byteOffset":5424,
			"target":34962
		},
		{
			"buffer":0,
			"byteLength":528,
			"byteOffset":6256,
			"target":34963
		},
		{
			"buffer":0,
			"byteLength":2112,
			"byteOffset":6784,
			"target":34962
		},
		{
			"buffer":0,
			"byteLength":2112,
			"byteOffset":8896,
			"target":34962
		},
		{
			"buffer":0,
			"byteLength":1408,
			"byteOffset":11008,
			"target":34962
		},
		{
			"buffer":0,
			"byteLength":912,
			"byteOffset":12416,
			"target":34963
		}
	],
	"samplers":[
		{
			"magFilter":9729,
			"minFilter":9987
		}
	],
	"buffers":[
		{
			"byteLength":13328,
			"uri":"LadaSklep.bin"
		}
	]
}
