{
	"asset":{
		"generator":"Khronos glTF Blender I/O v4.2.83",
		"version":"2.0"
	},
	"extensionsUsed":[
		"KHR_materials_unlit"
	],
	"scene":0,
	"scenes":[
		{
			"name":"Scene",
			"nodes":[
				0
			]
		}
	],
	"nodes":[
		{
			"mesh":0,
			"name":"Cube",
			"scale":[
				2.5349514484405518,
				2.5349514484405518,
				4.918900489807129
			],
			"translation":[
				0,
				2.1417791843414307,
				0
			]
		}
	],
	"materials":[
		{
			"doubleSided":true,
			"extensions":{
				"KHR_materials_unlit":{}
			},
			"name":"Material.001",
			"pbrMetallicRoughness":{
				"baseColorTexture":{
					"index":0
				},
				"metallicFactor":0,
				"roughnessFactor":0.9
			}
		}
	],
	"meshes":[
		{
			"name":"Cube.001",
			"primitives":[
				{
					"attributes":{
						"POSITION":0,
						"NORMAL":1,
						"TEXCOORD_0":2
					},
					"indices":3,
					"material":0
				}
			]
		}
	],
	"textures":[
		{
			"sampler":0,
			"source":0
		}
	],
	"images":[
		{
			"mimeType":"image/png",
			"name":"Margaryna",
			"uri":"Textures/Margaryna.png"
		}
	],
	"accessors":[
		{
			"bufferView":0,
			"componentType":5126,
			"count":402,
			"max":[
				1.0605448484420776,
				0.9964985847473145,
				1.0440490245819092
			],
			"min":[
				-1.0605448484420776,
				-1.1484968662261963,
				-1.0440490245819092
			],
			"type":"VEC3"
		},
		{
			"bufferView":1,
			"componentType":5126,
			"count":402,
			"type":"VEC3"
		},
		{
			"bufferView":2,
			"componentType":5126,
			"count":402,
			"type":"VEC2"
		},
		{
			"bufferView":3,
			"componentType":5123,
			"count":1428,
			"type":"SCALAR"
		}
	],
	"bufferViews":[
		{
			"buffer":0,
			"byteLength":4824,
			"byteOffset":0,
			"target":34962
		},
		{
			"buffer":0,
			"byteLength":4824,
			"byteOffset":4824,
			"target":34962
		},
		{
			"buffer":0,
			"byteLength":3216,
			"byteOffset":9648,
			"target":34962
		},
		{
			"buffer":0,
			"byteLength":2856,
			"byteOffset":12864,
			"target":34963
		}
	],
	"samplers":[
		{
			"magFilter":9729,
			"minFilter":9987
		}
	],
	"buffers":[
		{
			"byteLength":15720,
			"uri":"Margaryna.bin"
		}
	]
}
