{
	"asset":{
		"generator":"Khronos glTF Blender I/O v4.2.83",
		"version":"2.0"
	},
	"extensionsUsed":[
		"KHR_materials_unlit"
	],
	"scene":0,
	"scenes":[
		{
			"name":"Scene",
			"nodes":[
				0
			]
		}
	],
	"nodes":[
		{
			"mesh":0,
			"name":"Cube.007",
			"rotation":[
				1,
				0,
				0,
				0
			],
			"scale":[
				-0.07475197315216064,
				-1.0567569732666016,
				-1.2277278900146484
			],
			"translation":[
				0.23541978001594543,
				1.887893795967102,
				0
			]
		}
	],
	"materials":[
		{
			"doubleSided":true,
			"extensions":{
				"KHR_materials_unlit":{}
			},
			"name":"Czapka",
			"pbrMetallicRoughness":{
				"baseColorTexture":{
					"index":0
				},
				"metallicFactor":0,
				"roughnessFactor":0.9
			}
		},
		{
			"doubleSided":true,
			"extensions":{
				"KHR_materials_unlit":{}
			},
			"name":"kroperka",
			"pbrMetallicRoughness":{
				"baseColorTexture":{
					"index":1
				},
				"metallicFactor":0,
				"roughnessFactor":0.9
			}
		},
		{
			"doubleSided":true,
			"extensions":{
				"KHR_materials_unlit":{}
			},
			"name":"Material.011",
			"pbrMetallicRoughness":{
				"baseColorTexture":{
					"index":2
				},
				"metallicFactor":0,
				"roughnessFactor":0.9
			}
		},
		{
			"doubleSided":true,
			"extensions":{
				"KHR_materials_unlit":{}
			},
			"name":"Material.012",
			"pbrMetallicRoughness":{
				"baseColorTexture":{
					"index":3
				},
				"metallicFactor":0,
				"roughnessFactor":0.9
			}
		},
		{
			"doubleSided":true,
			"extensions":{
				"KHR_materials_unlit":{}
			},
			"name":"Material.007",
			"pbrMetallicRoughness":{
				"baseColorTexture":{
					"index":4
				},
				"metallicFactor":0,
				"roughnessFactor":0.9
			}
		}
	],
	"meshes":[
		{
			"name":"Cube.011",
			"primitives":[
				{
					"attributes":{
						"POSITION":0,
						"NORMAL":1,
						"TEXCOORD_0":2
					},
					"indices":3
				},
				{
					"attributes":{
						"POSITION":4,
						"NORMAL":5,
						"TEXCOORD_0":6
					},
					"indices":7,
					"material":0
				},
				{
					"attributes":{
						"POSITION":8,
						"NORMAL":9,
						"TEXCOORD_0":10
					},
					"indices":11,
					"material":1
				},
				{
					"attributes":{
						"POSITION":12,
						"NORMAL":13,
						"TEXCOORD_0":14
					},
					"indices":15,
					"material":2
				},
				{
					"attributes":{
						"POSITION":16,
						"NORMAL":17,
						"TEXCOORD_0":18
					},
					"indices":19,
					"material":3
				},
				{
					"attributes":{
						"POSITION":20,
						"NORMAL":21,
						"TEXCOORD_0":22
					},
					"indices":23,
					"material":4
				}
			]
		}
	],
	"textures":[
		{
			"sampler":0,
			"source":0
		},
		{
			"sampler":0,
			"source":0
		},
		{
			"sampler":0,
			"source":0
		},
		{
			"sampler":0,
			"source":0
		},
		{
			"sampler":0,
			"source":0
		}
	],
	"images":[
		{
			"mimeType":"image/png",
			"name":"PolkiSklep",
			"uri":"Textures/PolkiSklep.png"
		}
	],
	"accessors":[
		{
			"bufferView":0,
			"componentType":5126,
			"count":48,
			"max":[
				4.7083892822265625,
				0.1597936749458313,
				0.6558053493499756
			],
			"min":[
				-1.7672924995422363,
				-1.8402063846588135,
				-0.6558053493499756
			],
			"type":"VEC3"
		},
		{
			"bufferView":1,
			"componentType":5126,
			"count":48,
			"type":"VEC3"
		},
		{
			"bufferView":2,
			"componentType":5126,
			"count":48,
			"type":"VEC2"
		},
		{
			"bufferView":3,
			"componentType":5123,
			"count":72,
			"type":"SCALAR"
		},
		{
			"bufferView":4,
			"componentType":5126,
			"count":448,
			"max":[
				4.7083892822265625,
				0.13597404956817627,
				0.6803063154220581
			],
			"min":[
				1.7964619398117065,
				-1.7900030612945557,
				-0.6803063154220581
			],
			"type":"VEC3"
		},
		{
			"bufferView":5,
			"componentType":5126,
			"count":448,
			"type":"VEC3"
		},
		{
			"bufferView":6,
			"componentType":5126,
			"count":448,
			"type":"VEC2"
		},
		{
			"bufferView":7,
			"componentType":5123,
			"count":672,
			"type":"SCALAR"
		},
		{
			"bufferView":8,
			"componentType":5126,
			"count":4,
			"max":[
				2.037458896636963,
				0.1597936749458313,
				0.6251095533370972
			],
			"min":[
				2.037458896636963,
				-1.8402063846588135,
				-0.6251095533370972
			],
			"type":"VEC3"
		},
		{
			"bufferView":9,
			"componentType":5126,
			"count":4,
			"type":"VEC3"
		},
		{
			"bufferView":10,
			"componentType":5126,
			"count":4,
			"type":"VEC2"
		},
		{
			"bufferView":11,
			"componentType":5123,
			"count":6,
			"type":"SCALAR"
		},
		{
			"bufferView":12,
			"componentType":5126,
			"count":96,
			"max":[
				1.7672927379608154,
				0.006921529769897461,
				0.6558053493499756
			],
			"min":[
				-1.7672924995422363,
				-1.418221354484558,
				-0.6558053493499756
			],
			"type":"VEC3"
		},
		{
			"bufferView":13,
			"componentType":5126,
			"count":96,
			"type":"VEC3"
		},
		{
			"bufferView":14,
			"componentType":5126,
			"count":96,
			"type":"VEC2"
		},
		{
			"bufferView":15,
			"componentType":5123,
			"count":144,
			"type":"SCALAR"
		},
		{
			"bufferView":16,
			"componentType":5126,
			"count":168,
			"max":[
				2.0598511695861816,
				-0.007532358169555664,
				0.6566175222396851
			],
			"min":[
				0.2935776710510254,
				-1.5066540241241455,
				-0.6566175222396851
			],
			"type":"VEC3"
		},
		{
			"bufferView":17,
			"componentType":5126,
			"count":168,
			"type":"VEC3"
		},
		{
			"bufferView":18,
			"componentType":5126,
			"count":168,
			"type":"VEC2"
		},
		{
			"bufferView":19,
			"componentType":5123,
			"count":216,
			"type":"SCALAR"
		},
		{
			"bufferView":20,
			"componentType":5126,
			"count":346,
			"max":[
				4.7083892822265625,
				0.1597936749458313,
				0.688244104385376
			],
			"min":[
				1.7672927379608154,
				-1.8402063846588135,
				-0.688244104385376
			],
			"type":"VEC3"
		},
		{
			"bufferView":21,
			"componentType":5126,
			"count":346,
			"type":"VEC3"
		},
		{
			"bufferView":22,
			"componentType":5126,
			"count":346,
			"type":"VEC2"
		},
		{
			"bufferView":23,
			"componentType":5123,
			"count":1206,
			"type":"SCALAR"
		}
	],
	"bufferViews":[
		{
			"buffer":0,
			"byteLength":576,
			"byteOffset":0,
			"target":34962
		},
		{
			"buffer":0,
			"byteLength":576,
			"byteOffset":576,
			"target":34962
		},
		{
			"buffer":0,
			"byteLength":384,
			"byteOffset":1152,
			"target":34962
		},
		{
			"buffer":0,
			"byteLength":144,
			"byteOffset":1536,
			"target":34963
		},
		{
			"buffer":0,
			"byteLength":5376,
			"byteOffset":1680,
			"target":34962
		},
		{
			"buffer":0,
			"byteLength":5376,
			"byteOffset":7056,
			"target":34962
		},
		{
			"buffer":0,
			"byteLength":3584,
			"byteOffset":12432,
			"target":34962
		},
		{
			"buffer":0,
			"byteLength":1344,
			"byteOffset":16016,
			"target":34963
		},
		{
			"buffer":0,
			"byteLength":48,
			"byteOffset":17360,
			"target":34962
		},
		{
			"buffer":0,
			"byteLength":48,
			"byteOffset":17408,
			"target":34962
		},
		{
			"buffer":0,
			"byteLength":32,
			"byteOffset":17456,
			"target":34962
		},
		{
			"buffer":0,
			"byteLength":12,
			"byteOffset":17488,
			"target":34963
		},
		{
			"buffer":0,
			"byteLength":1152,
			"byteOffset":17500,
			"target":34962
		},
		{
			"buffer":0,
			"byteLength":1152,
			"byteOffset":18652,
			"target":34962
		},
		{
			"buffer":0,
			"byteLength":768,
			"byteOffset":19804,
			"target":34962
		},
		{
			"buffer":0,
			"byteLength":288,
			"byteOffset":20572,
			"target":34963
		},
		{
			"buffer":0,
			"byteLength":2016,
			"byteOffset":20860,
			"target":34962
		},
		{
			"buffer":0,
			"byteLength":2016,
			"byteOffset":22876,
			"target":34962
		},
		{
			"buffer":0,
			"byteLength":1344,
			"byteOffset":24892,
			"target":34962
		},
		{
			"buffer":0,
			"byteLength":432,
			"byteOffset":26236,
			"target":34963
		},
		{
			"buffer":0,
			"byteLength":4152,
			"byteOffset":26668,
			"target":34962
		},
		{
			"buffer":0,
			"byteLength":4152,
			"byteOffset":30820,
			"target":34962
		},
		{
			"buffer":0,
			"byteLength":2768,
			"byteOffset":34972,
			"target":34962
		},
		{
			"buffer":0,
			"byteLength":2412,
			"byteOffset":37740,
			"target":34963
		}
	],
	"samplers":[
		{
			"magFilter":9729,
			"minFilter":9987
		}
	],
	"buffers":[
		{
			"byteLength":40152,
			"uri":"PolkaSklep.bin"
		}
	]
}
