{
	"asset":{
		"generator":"Khronos glTF Blender I/O v4.2.83",
		"version":"2.0"
	},
	"extensionsUsed":[
		"KHR_materials_unlit"
	],
	"scene":0,
	"scenes":[
		{
			"name":"Scene",
			"nodes":[
				0
			]
		}
	],
	"nodes":[
		{
			"mesh":0,
			"name":"Plane",
			"rotation":[
				0.7071068286895752,
				0,
				0,
				0.7071068286895752
			],
			"translation":[
				0,
				2.730778217315674,
				0
			]
		}
	],
	"materials":[
		{
			"doubleSided":true,
			"extensions":{
				"KHR_materials_unlit":{}
			},
			"name":"Material",
			"pbrMetallicRoughness":{
				"baseColorTexture":{
					"index":0
				},
				"metallicFactor":0,
				"roughnessFactor":0.9
			}
		},
		{
			"doubleSided":true,
			"extensions":{
				"KHR_materials_unlit":{}
			},
			"name":"Material.003",
			"pbrMetallicRoughness":{
				"baseColorTexture":{
					"index":1
				},
				"metallicFactor":0,
				"roughnessFactor":0.9
			}
		},
		{
			"doubleSided":true,
			"extensions":{
				"KHR_materials_unlit":{}
			},
			"name":"Material.007",
			"pbrMetallicRoughness":{
				"baseColorTexture":{
					"index":2
				},
				"metallicFactor":0,
				"roughnessFactor":0.9
			}
		}
	],
	"meshes":[
		{
			"name":"Plane.002",
			"primitives":[
				{
					"attributes":{
						"POSITION":0,
						"NORMAL":1,
						"TEXCOORD_0":2
					},
					"indices":3,
					"material":0
				},
				{
					"attributes":{
						"POSITION":4,
						"NORMAL":5,
						"TEXCOORD_0":6
					},
					"indices":7,
					"material":1
				},
				{
					"attributes":{
						"POSITION":8,
						"NORMAL":9,
						"TEXCOORD_0":10
					},
					"indices":11,
					"material":2
				}
			]
		}
	],
	"textures":[
		{
			"sampler":0,
			"source":0
		},
		{
			"sampler":0,
			"source":0
		},
		{
			"sampler":0,
			"source":0
		}
	],
	"images":[
		{
			"mimeType":"image/png",
			"name":"Puszka1",
			"uri":"Textures/Puszka1.png"
		}
	],
	"accessors":[
		{
			"bufferView":0,
			"componentType":5126,
			"count":26,
			"max":[
				0.9427197575569153,
				0.9419674873352051,
				2.2086453437805176
			],
			"min":[
				-0.9427197575569153,
				-0.9434722661972046,
				-1.4233043193817139
			],
			"type":"VEC3"
		},
		{
			"bufferView":1,
			"componentType":5126,
			"count":26,
			"type":"VEC3"
		},
		{
			"bufferView":2,
			"componentType":5126,
			"count":26,
			"type":"VEC2"
		},
		{
			"bufferView":3,
			"componentType":5123,
			"count":72,
			"type":"SCALAR"
		},
		{
			"bufferView":4,
			"componentType":5126,
			"count":152,
			"max":[
				0.9427197575569153,
				0.9419674873352051,
				2.3902316093444824
			],
			"min":[
				-0.9427197575569153,
				-0.9434722661972046,
				-1.8246395587921143
			],
			"type":"VEC3"
		},
		{
			"bufferView":5,
			"componentType":5126,
			"count":152,
			"type":"VEC3"
		},
		{
			"bufferView":6,
			"componentType":5126,
			"count":152,
			"type":"VEC2"
		},
		{
			"bufferView":7,
			"componentType":5123,
			"count":720,
			"type":"SCALAR"
		},
		{
			"bufferView":8,
			"componentType":5126,
			"count":368,
			"max":[
				0.8070052266120911,
				0.806252658367157,
				2.486011505126953
			],
			"min":[
				-0.8070052266120911,
				-0.8081567883491516,
				-1.9740772247314453
			],
			"type":"VEC3"
		},
		{
			"bufferView":9,
			"componentType":5126,
			"count":368,
			"type":"VEC3"
		},
		{
			"bufferView":10,
			"componentType":5126,
			"count":368,
			"type":"VEC2"
		},
		{
			"bufferView":11,
			"componentType":5123,
			"count":1500,
			"type":"SCALAR"
		}
	],
	"bufferViews":[
		{
			"buffer":0,
			"byteLength":312,
			"byteOffset":0,
			"target":34962
		},
		{
			"buffer":0,
			"byteLength":312,
			"byteOffset":312,
			"target":34962
		},
		{
			"buffer":0,
			"byteLength":208,
			"byteOffset":624,
			"target":34962
		},
		{
			"buffer":0,
			"byteLength":144,
			"byteOffset":832,
			"target":34963
		},
		{
			"buffer":0,
			"byteLength":1824,
			"byteOffset":976,
			"target":34962
		},
		{
			"buffer":0,
			"byteLength":1824,
			"byteOffset":2800,
			"target":34962
		},
		{
			"buffer":0,
			"byteLength":1216,
			"byteOffset":4624,
			"target":34962
		},
		{
			"buffer":0,
			"byteLength":1440,
			"byteOffset":5840,
			"target":34963
		},
		{
			"buffer":0,
			"byteLength":4416,
			"byteOffset":7280,
			"target":34962
		},
		{
			"buffer":0,
			"byteLength":4416,
			"byteOffset":11696,
			"target":34962
		},
		{
			"buffer":0,
			"byteLength":2944,
			"byteOffset":16112,
			"target":34962
		},
		{
			"buffer":0,
			"byteLength":3000,
			"byteOffset":19056,
			"target":34963
		}
	],
	"samplers":[
		{
			"magFilter":9729,
			"minFilter":9987
		}
	],
	"buffers":[
		{
			"byteLength":22056,
			"uri":"Puszka1.bin"
		}
	]
}
